<svg width="95" height="16" viewBox="0 0 95 16" fill="none" xmlns="http://www.w3.org/2000/svg">
<path d="M9.52682 13.4721C9.52235 13.4721 9.51565 13.4721 9.51118 13.4721C5.36665 13.4721 1.99295 10.1051 1.99295 5.96507C1.99295 5.9606 1.99295 5.95613 1.99295 5.95166H0C0 5.95613 0 5.9606 0 5.96507C0 11.2021 4.26517 15.4651 9.50894 15.4651C9.51341 15.4651 9.52011 15.4651 9.52458 15.4651V13.4721H9.52682Z" fill="#EC6608"/>
<path d="M3.59265 5.95851C3.59265 2.71438 6.28491 0.0131836 9.52457 0.0131836C11.0081 0.0265891 12.447 0.708032 13.4926 1.76036L12.7329 2.78365C11.9018 1.9324 10.7422 1.33586 9.47318 1.33586C7.1518 1.33586 4.91085 3.3422 4.91085 5.95627C4.91085 8.56363 7.13169 10.561 9.49552 10.561C10.7981 10.561 11.9085 9.9444 12.7396 9.1289L13.4926 10.1745C12.5319 11.1263 11.236 11.8725 9.53127 11.8725C6.32066 11.8748 3.59265 9.23167 3.59265 5.95851Z" fill="#D9FDFF"/>
<path d="M13.8232 5.95851C13.8232 2.68534 16.4954 0.0131836 19.7552 0.0131836C23.0216 0.0131836 25.6938 2.68534 25.6938 5.95851C25.6938 9.20933 23.0216 11.8748 19.7485 11.8748C16.4954 11.8748 13.8232 9.20933 13.8232 5.95851ZM24.3756 5.9518C24.3756 3.40923 22.2977 1.32468 19.7485 1.32468C17.2126 1.32468 15.1437 3.40923 15.1437 5.9518C15.1437 8.48767 17.2148 10.5588 19.7485 10.5588C22.2977 10.5566 24.3756 8.48767 24.3756 5.9518Z" fill="#D9FDFF"/>
<path d="M41.6574 1.46116V5.11415H46.4074V6.41895H41.6574V10.4294H47.138V11.7253H40.3549V0.178711H47.138V1.46116H41.6574Z" fill="#D9FDFF"/>
<path d="M67.2842 10.427V11.7228H60.3223V0.17627H61.6249V10.427H67.2842Z" fill="#D9FDFF"/>
<path d="M74.3937 1.46787H70.8256V11.7253H69.5208V1.46787H65.9415V0.178711H74.3937V1.46787Z" fill="#D9FDFF"/>
<path d="M84.2823 0.178711V11.7253H82.9864V6.58876H77.135V11.7253H75.8324V0.178711H77.135V5.29959H82.9864V0.178711H84.2823Z" fill="#D9FDFF"/>
<path d="M89.6132 6.81888L85.538 0.178711H86.9992L90.2656 5.36439L93.5321 0.178711H95L90.9091 6.81888V11.7253H89.6132V6.81888Z" fill="#D9FDFF"/>
<path d="M37.7006 0.178711L35.1938 8.60851L32.3854 1.11709H32.2848L29.463 8.60851L26.9561 0.178711H26.9115H25.5597H24.0226V1.4567H25.953L29.1412 11.7968H29.3356L32.3206 4.14003L35.3234 11.7968H35.5245L39.106 0.178711H37.7006Z" fill="#D9FDFF"/>
<path d="M53.508 0H53.365L48.0296 11.7253H49.4394L53.4432 2.75706L57.4335 11.7253H58.8523L53.508 0Z" fill="#D9FDFF"/>
</svg>
